<svg xmlns="http://www.w3.org/2000/svg" xmlns:xlink="http://www.w3.org/1999/xlink" width="21.947" height="26.812" viewBox="0 0 21.947 26.812">
  <defs>
    <style>
      .cls-1 {
        fill-rule: evenodd;
        fill: url(#linear-gradient);
      }
    </style>
    <linearGradient id="linear-gradient" x1="-0.118" y1="0.5" x2="1.043" y2="0.5" gradientUnits="objectBoundingBox">
      <stop offset="0" stop-color="#c6790e"/>
      <stop offset="0.19" stop-color="#d09f00"/>
      <stop offset="0.44" stop-color="#ffd516"/>
      <stop offset="0.49" stop-color="#ffe94a"/>
      <stop offset="0.62" stop-color="#f3d70d"/>
      <stop offset="0.85" stop-color="#ffe000"/>
      <stop offset="1" stop-color="#ffe760"/>
    </linearGradient>
  </defs>
  <path id="路径_9912" data-name="路径 9912" class="cls-1" d="M290.792,376.21a2.1,2.1,0,0,1-.85-2.641c-.94-2.641.537-3.044,1.656-5.058a5.29,5.29,0,0,0,.358-4.073s2.1,1.253,1.253,4.61c7.609,1.835,3,10.922,2.014,11.5a8.16,8.16,0,0,0,4.073-2.417c2.865-3.581.671-8.1-1.432-10.743-1.746-2.193-4.476-4.789-.985-7.52-3.178,3.715,6.088,10.832,5.282,6.625a3.687,3.687,0,0,0-.761-1.567c3.67,2.909,3.178,8.639,1.209,12.4a11.062,11.062,0,0,1-5.327,5.058c-2.059.94-4.566,1.388-4.387,4.3-.269-2.82-2.149-3.223-4.431-4.073-5.64-1.969-8.908-10.877-3.581-17.144-1.7,5.64,6.58-.716,4.521-5.55,2.507,2.909.492,5.55-.94,7.654a24.07,24.07,0,0,0-2.865,4.7,7.4,7.4,0,0,0,1.03,6.132,3.945,3.945,0,0,0,5.058,1.522,4.2,4.2,0,0,0,2.1-2.014,9.712,9.712,0,0,0,.358-1.343C294.776,372.629,290.166,372.718,290.792,376.21Z" transform="translate(-282.182 -359.872)"/>
</svg>
