<svg xmlns="http://www.w3.org/2000/svg" width="12" height="12" viewBox="0 0 12 12">
  <defs>
    <style>
      .cls-1 {
        fill: #fff;
      }
    </style>
  </defs>
  <g id="组_56517" data-name="组 56517" transform="translate(-89.716 -93.97)">
    <path id="路径_33094" data-name="路径 33094" class="cls-1" d="M101.3,97.571l-3.212-3.226a1.487,1.487,0,0,0-2.09,2.107l.248.249-1.079,1.083-.27-.271a1.8,1.8,0,0,0-2.546,0L90.914,98.96a4.1,4.1,0,1,0,5.786,5.807l1.427-1.43a1.817,1.817,0,0,0,0-2.557l-.27-.271,1.079-1.083.248.246a1.486,1.486,0,0,0,2.1-2.1Zm-.572,1.53a.672.672,0,0,1-.955,0l-.539-.542a.4.4,0,0,0-.27-.111.409.409,0,0,0-.286.119l-1.656,1.663a.4.4,0,0,0,0,.574l.539.542a1,1,0,0,1,0,1.408l-1.43,1.438a3.287,3.287,0,1,1-4.639-4.658L92.912,98.1a.992.992,0,0,1,1.4,0l.539.542a.4.4,0,0,0,.572,0l1.656-1.663a.4.4,0,0,0,0-.574l-.539-.542a.676.676,0,0,1,0-.959.688.688,0,0,1,.952,0l3.229,3.239a.679.679,0,0,1,0,.956Z"/>
    <path id="路径_33095" data-name="路径 33095" class="cls-1" d="M307,555.034l-1.492,1.492a.406.406,0,1,0,.571.574l1.495-1.492a.406.406,0,1,0-.574-.574Z" transform="translate(-212.58 -454.352)"/>
  </g>
</svg>
