<svg xmlns="http://www.w3.org/2000/svg" width="12" height="12" viewBox="0 0 12 12">
  <defs>
    <style>
      .cls-1 {
        fill: #fff;
      }
    </style>
  </defs>
  <g id="组_56586" data-name="组 56586" transform="translate(-96 -96)">
    <path id="路径_33100" data-name="路径 33100" class="cls-1" d="M192,192.663c0,.091.316.339,5.056,5.306,4.008,4.2,4.229,4.642,4.45,4.642a2.664,2.664,0,0,0,1.105-1.105c0-.221-.442-.442-4.642-4.45C193,192.316,192.754,192,192.663,192A1,1,0,0,0,192,192.663Z" transform="translate(-94.611 -94.611)"/>
    <path id="路径_33101" data-name="路径 33101" class="cls-1" d="M105.537,96.18a7.885,7.885,0,0,0-9.358,9.381A13.446,13.446,0,0,1,105.537,96.18Zm-7.985,10.932-.443.889-.443-.889.443-.889Zm9.31-10-.443.889.443.889.443-.889Zm-1.773,3.111-.443.889.443.889.443-.889Zm-6.207,3.111-.665,1.333L98.882,106l.665-1.333Z" transform="translate(0 0)"/>
  </g>
</svg>
