<svg xmlns="http://www.w3.org/2000/svg" width="12" height="12" viewBox="0 0 12 12">
  <defs>
    <style>
      .cls-1 {
        fill: #fff;
      }
    </style>
  </defs>
  <g id="组_56585" data-name="组 56585" transform="translate(-80 -63.25)">
    <path id="路径_33098" data-name="路径 33098" class="cls-1" d="M92,162.063H82.954l-.4-1.08L82.162,160H80.444a.414.414,0,1,0,0,.825h1.07l2.93,7.841h.8a1.5,1.5,0,0,1,.039-.269l.018-.006-.012-.033a1.735,1.735,0,0,1,.191-.518H85.1l-1.837-4.952h7.615l-1.333,4.952h-.8a1.614,1.614,0,0,1,.236.825h1.259l.122-.456,1.258-4.672h-.005L92,162.068v0Z" transform="translate(0 -95.315)"/>
    <path id="路径_33099" data-name="路径 33099" class="cls-1" d="M359.3,71.825a1.722,1.722,0,1,0,1.9,1.713A1.815,1.815,0,0,0,359.3,71.825Zm0,2.569a.861.861,0,1,1,.949-.856A.9.9,0,0,1,359.3,74.394Zm-3.15-8.383H357.7l-.894-.623,1.047-1.224,1.685,1.173.94.627.808-.944,1.421.99h1.343a.7.7,0,0,0-.242-.316l-2.069-1.441a.851.851,0,0,0-1.108.128l-.34.4L358.309,63.4a.851.851,0,0,0-1.108.128l-1.243,1.452a.669.669,0,0,0,.142,1Z" transform="translate(-272.52 0)"/>
  </g>
</svg>
