<svg xmlns="http://www.w3.org/2000/svg" width="12" height="11.999" viewBox="0 0 12 11.999">
  <defs>
    <style>
      .cls-1 {
        fill: #fff;
      }
    </style>
  </defs>
  <path id="路径_33104" data-name="路径 33104" class="cls-1" d="M192.92,198.964a6,6,0,1,1,4.243-1.757A5.964,5.964,0,0,1,192.92,198.964Zm0-11.077A5.077,5.077,0,1,0,198,192.964,5.082,5.082,0,0,0,192.92,187.887Zm0,9.138a.464.464,0,0,1-.462-.461v-.69l-.07-.018a2.372,2.372,0,0,1-.729-.307,2.1,2.1,0,0,1-.471-.385.462.462,0,1,1,.7-.607,1.3,1.3,0,0,0,.264.209,1.434,1.434,0,0,0,.769.227,1.061,1.061,0,0,0,.785-.3.483.483,0,0,0,.137-.372c-.032-.289-.276-.5-1.044-.9l-.177-.091a4.507,4.507,0,0,1-1.142-.746,1.434,1.434,0,0,1-.083-1.9,1.869,1.869,0,0,1,.994-.613l.068-.018v-.693a.463.463,0,0,1,.925,0v.69l.07.017a2.4,2.4,0,0,1,.729.307,2.118,2.118,0,0,1,.471.385.462.462,0,1,1-.7.607,1.289,1.289,0,0,0-.265-.209,1.426,1.426,0,0,0-.769-.227,1.059,1.059,0,0,0-.785.3.487.487,0,0,0-.138.373c.032.288.276.5,1.045.9l.177.091a4.52,4.52,0,0,1,1.142.747,1.43,1.43,0,0,1,.083,1.9,1.865,1.865,0,0,1-.993.612l-.069.018v.694a.462.462,0,0,1-.463.462Z" transform="translate(-186.92 -186.965)"/>
</svg>
