<svg xmlns="http://www.w3.org/2000/svg" xmlns:xlink="http://www.w3.org/1999/xlink" width="375" height="260" viewBox="0 0 375 260">
  <defs>
    <style>
      .cls-1 {
        fill: #fecf7e;
      }

      .cls-1, .cls-2 {
        stroke: #707070;
      }

      .cls-2 {
        fill: #27c18a;
        opacity: 0;
      }

      .cls-3 {
        opacity: 0.98;
      }

      .cls-4 {
        fill: url(#linear-gradient);
      }

      .cls-5 {
        opacity: 0.193;
        clip-path: url(#clip-path);
      }

      .cls-6 {
        fill: #fcb844;
      }

      .cls-6, .cls-7 {
        opacity: 0.4;
      }

      .cls-7 {
        fill: #faa718;
      }

      .cls-8 {
        opacity: 0.298;
        clip-path: url(#clip-path-2);
      }

      .cls-9 {
        fill: #edbd6a;
        opacity: 0.202;
      }
    </style>
    <linearGradient id="linear-gradient" x1="0.5" x2="0.5" y2="1" gradientUnits="objectBoundingBox">
      <stop offset="0" stop-color="#23927b"/>
      <stop offset="1" stop-color="#18263a"/>
    </linearGradient>
    <clipPath id="clip-path">
      <rect id="矩形_1" data-name="矩形 1" class="cls-1" width="375" height="31" transform="translate(0 -0.169)"/>
    </clipPath>
    <clipPath id="clip-path-2">
      <rect id="矩形_21393" data-name="矩形 21393" class="cls-2" width="375" height="62" transform="translate(0 -0.547)"/>
    </clipPath>
  </defs>
  <g id="组_56569" data-name="组 56569" class="cls-3" transform="translate(0 -75)">
    <rect id="矩形_54" data-name="矩形 54" class="cls-4" width="375" height="260" transform="translate(0 75)"/>
    <g id="蒙版组_1" data-name="蒙版组 1" class="cls-5" transform="translate(0 304.169)">
      <path id="矩形_53" data-name="矩形 53" class="cls-6" d="M-1,513.761s23.812-16.715,59.427-16.715c58.379,0,148.473,29.763,217.391,29.415,55.776-.282,98.681-15.209,98.681-15.209l-1,162.742H-1Z" transform="translate(0.501 -497.054)"/>
      <path id="矩形_53_拷贝" data-name="矩形 53 拷贝" class="cls-7" d="M374.5,513.731s-23.812-16.717-59.427-16.717c-58.379,0-148.473,29.765-217.391,29.417C41.905,526.149-1,511.22-1,511.22L0,673.975H374.5Z" transform="translate(0.501 -497.036)"/>
    </g>
    <g id="蒙版组_2" data-name="蒙版组 2" class="cls-8" transform="translate(0 273.547)">
      <path id="矩形_53_拷贝-2" data-name="矩形 53 拷贝" class="cls-9" d="M374.5,529.854s-23.812-32.84-59.427-32.84c-58.379,0-148.473,58.474-217.391,57.79C41.905,554.25-1,524.923-1,524.923L0,844.659H374.5Z" transform="translate(0.501 -495.608)"/>
    </g>
  </g>
</svg>
