<svg xmlns="http://www.w3.org/2000/svg" width="14.966" height="15.787" viewBox="0 0 14.966 15.787">
  <defs>
    <style>
      .cls-1 {
        fill: #fff;
      }
    </style>
  </defs>
  <g id="组_65982" data-name="组 65982" transform="translate(-31.03)">
    <path id="路径_33136" data-name="路径 33136" class="cls-1" d="M37.789,13.518a6.759,6.759,0,1,1,6.759-6.759A6.779,6.779,0,0,1,37.789,13.518Zm0-12.552a5.793,5.793,0,1,0,5.793,5.793A5.81,5.81,0,0,0,37.789.966Z" transform="translate(0)"/>
    <path id="路径_33137" data-name="路径 33137" class="cls-1" d="M761.866,802.206a.234.234,0,0,1,.338,0l2.848,2.607a.239.239,0,0,1-.338.338l-2.848-2.607A.233.233,0,0,1,761.866,802.206Z" transform="translate(-719.394 -789.653)"/>
    <path id="路径_33138" data-name="路径 33138" class="cls-1" d="M751.161,788.639a.522.522,0,0,1-.338-.145l-2.848-2.607a.478.478,0,1,1,.676-.676l2.848,2.607a.467.467,0,0,1,0,.676A.721.721,0,0,1,751.161,788.639Zm-2.9-3.09,2.848,2.607L748.12,785.4Z" transform="translate(-705.648 -772.852)"/>
  </g>
</svg>
