<svg xmlns="http://www.w3.org/2000/svg" xmlns:xlink="http://www.w3.org/1999/xlink" width="33" height="33" viewBox="0 0 33 33">
  <defs>
    <style>
      .cls-1 {
        fill: #007771;
      }

      .cls-2 {
        fill-rule: evenodd;
        fill: url(#linear-gradient);
      }

      .cls-3 {
        filter: url(#椭圆_4);
      }
    </style>
    <filter id="椭圆_4" x="0" y="0" width="33" height="33" filterUnits="userSpaceOnUse">
      <feOffset dy="1" input="SourceAlpha"/>
      <feGaussianBlur stdDeviation="0.5" result="blur"/>
      <feFlood flood-opacity="0.2"/>
      <feComposite operator="in" in2="blur"/>
      <feComposite in="SourceGraphic"/>
    </filter>
    <linearGradient id="linear-gradient" x1="-0.118" y1="0.5" x2="1.043" y2="0.5" gradientUnits="objectBoundingBox">
      <stop offset="0" stop-color="#c6790e"/>
      <stop offset="0.19" stop-color="#d09f00"/>
      <stop offset="0.44" stop-color="#ffd516"/>
      <stop offset="0.49" stop-color="#ffe94a"/>
      <stop offset="0.62" stop-color="#f3d70d"/>
      <stop offset="0.85" stop-color="#ffe000"/>
      <stop offset="1" stop-color="#ffe760"/>
    </linearGradient>
  </defs>
  <g id="组_56575" data-name="组 56575" transform="translate(-60.5 -437.5)">
    <g id="组_56498" data-name="组 56498" transform="translate(61.748 438)">
      <g class="cls-3" transform="matrix(1, 0, 0, 1, -1.25, -0.5)">
        <circle id="椭圆_4-2" data-name="椭圆 4" class="cls-1" cx="15" cy="15" r="15" transform="translate(1.5 0.5)"/>
      </g>
    </g>
    <path id="路径_9912" data-name="路径 9912" class="cls-2" d="M289.18,373.152a1.709,1.709,0,0,1-.691-2.147c-.764-2.147.437-2.474,1.346-4.111a4.3,4.3,0,0,0,.291-3.311s1.71,1.019,1.019,3.747c6.185,1.492,2.438,8.877,1.637,9.35a6.632,6.632,0,0,0,3.311-1.965c2.328-2.911.546-6.585-1.164-8.732-1.419-1.783-3.638-3.893-.8-6.112-2.583,3.02,4.948,8.8,4.293,5.385a3,3,0,0,0-.618-1.273c2.983,2.365,2.583,7.022.982,10.078a8.991,8.991,0,0,1-4.329,4.111c-1.674.764-3.711,1.128-3.565,3.493-.218-2.292-1.746-2.62-3.6-3.311-4.584-1.6-7.24-8.841-2.911-13.934-1.383,4.584,5.348-.582,3.675-4.511,2.037,2.365.4,4.511-.764,6.221a19.564,19.564,0,0,0-2.328,3.82,6.016,6.016,0,0,0,.837,4.984,3.206,3.206,0,0,0,4.111,1.237,3.413,3.413,0,0,0,1.71-1.637,7.894,7.894,0,0,0,.291-1.091C292.418,370.241,288.671,370.314,289.18,373.152Z" transform="translate(-214.182 82.128)"/>
  </g>
</svg>
