<svg xmlns="http://www.w3.org/2000/svg" xmlns:xlink="http://www.w3.org/1999/xlink" width="33" height="33" viewBox="0 0 33 33">
  <defs>
    <style>
      .cls-1 {
        fill: #1fa27a;
      }

      .cls-2 {
        fill: #fff;
      }

      .cls-3 {
        filter: url(#椭圆_4);
      }
    </style>
    <filter id="椭圆_4" x="0" y="0" width="33" height="33" filterUnits="userSpaceOnUse">
      <feOffset dy="1" input="SourceAlpha"/>
      <feGaussianBlur stdDeviation="0.5" result="blur"/>
      <feFlood flood-opacity="0.161"/>
      <feComposite operator="in" in2="blur"/>
      <feComposite in="SourceGraphic"/>
    </filter>
  </defs>
  <g id="组_56576" data-name="组 56576" transform="translate(-33.5 -437.5)">
    <g id="组_71" data-name="组 71" transform="translate(35 438)">
      <g class="cls-3" transform="matrix(1, 0, 0, 1, -1.5, -0.5)">
        <circle id="椭圆_4-2" data-name="椭圆 4" class="cls-1" cx="15" cy="15" r="15" transform="translate(1.5 0.5)"/>
      </g>
    </g>
    <g id="组_69" data-name="组 69" transform="translate(-150 240.541)">
      <g id="组_5" data-name="组 5" transform="translate(183 208)">
        <g id="组_68" data-name="组 68" transform="translate(3 20)">
          <path id="路径_14583" data-name="路径 14583" class="cls-2" d="M281.24,258.2H267.469v3.5h5.224v5.143h3.325V261.7h5.222Z" transform="translate(-260.493 -281.743)"/>
        </g>
        <path id="路径_14584" data-name="路径 14584" class="cls-2" d="M219.53,453.533c0-1.162-3.979-2.1-8.9-2.1s-8.9.941-8.9,2.1c0,1.024,3.094,1.876,7.185,2.064v7.493h3.366V455.6C216.4,455.417,219.53,454.561,219.53,453.533Zm-8.9,1.361c-4.378,0-7.928-.732-7.928-1.626s3.548-1.631,7.926-1.631,7.928.73,7.928,1.631-3.548,1.626-7.926,1.626Z" transform="translate(-193.728 -449.58)"/>
      </g>
    </g>
  </g>
</svg>
